<?xml version="1.0" encoding="UTF-8"?>
<!DOCTYPE svg PUBLIC "-//W3C//DTD SVG 1.1//EN" "http://www.w3.org/Graphics/SVG/1.1/DTD/svg11.dtd">
<!-- Creator: CorelDRAW -->
<svg xmlns="http://www.w3.org/2000/svg" xml:space="preserve" width="6in" height="6in" style="shape-rendering:geometricPrecision; text-rendering:geometricPrecision; image-rendering:optimizeQuality; fill-rule:evenodd; clip-rule:evenodd"
viewBox="0 0 6 6"
 xmlns:xlink="http://www.w3.org/1999/xlink">
 <defs>
  <style type="text/css">
   <![CDATA[
    .str1 {stroke:#1F1A17;stroke-width:0.003}
    .str0 {stroke:#1F1A17;stroke-width:0.003;stroke-linecap:round;stroke-linejoin:round}
    .fil1 {fill:none;fill-rule:nonzero}
    .fil0 {fill:#0A0B0C;fill-rule:nonzero}
   ]]>
  </style>
 </defs>
 <g id="Layer_x0020_1">
  <metadata id="CorelCorpID_0Corel-Layer"/>
  <path class="fil0" d="M1.27156 3.28709c-0.00951969,0 -0.0160591,-0.00158661 -0.0195827,-0.00477559 -0.00355512,-0.00317323 -0.0053189,-0.00914173 -0.0053189,-0.0179016l0 -0.110028c0,-0.00961811 0.00187008,-0.0162362 0.00564173,-0.0198583 0.00375591,-0.0036063 0.0103386,-0.0054252 0.0196969,-0.0054252l0.0302165 0c0.015937,0 0.0282953,0.00346063 0.0370827,0.0103622 0.00877559,0.00692126 0.0131575,0.0165472 0.0131575,0.0289173 0,0.00774803 -0.00161417,0.0141496 -0.00485827,0.0192087 -0.00325197,0.00507087 -0.00827165,0.00904724 -0.0150512,0.0119331 0.0105512,0.00253543 0.0186339,0.00725984 0.0242362,0.0141614 0.00560236,0.00691732 0.00840945,0.0155433 0.00840945,0.025878 0,0.0149094 -0.00503543,0.0265591 -0.0151102,0.0349409 -0.0100787,0.00839764 -0.0241417,0.0125866 -0.0422244,0.0125866l-0.0362953 0zm0.0118425 -0.0964646l0 0 0.0153819 0c0.00546457,0 0.00984646,-0.00140945 0.0131693,-0.00423228 0.00332283,-0.0028189 0.00497638,-0.00650787 0.00497638,-0.0110669 0,-0.00477165 -0.00166929,-0.00857087 -0.0050315,-0.0113937 -0.00336614,-0.0028189 -0.00788189,-0.00423228 -0.013563,-0.00423228l-0.0149331 0 0 0.0309252zm0 0.0655394l0 0 0.018378 0c0.00811024,0 0.0142795,-0.00151969 0.0185276,-0.00455906 0.00424409,-0.00303543 0.00637402,-0.00744488 0.00637402,-0.0132362 0,-0.00599213 -0.00208661,-0.0104409 -0.00626772,-0.0133465 -0.00416142,-0.00288583 -0.0106063,-0.00433858 -0.019311,-0.00433858l-0.0177008 0 0 0.0354803z"/>
  <path class="fil0" d="M1.40649 3.23772c0.000814961,0.00659055 0.00358268,0.0117165 0.00829921,0.0154055 0.00472047,0.00368898 0.0109606,0.00553543 0.0187205,0.00553543 0.00670079,0 0.014185,-0.00189764 0.0224055,-0.00569685 0.00822047,-0.00379921 0.0132913,-0.00569685 0.0152165,-0.00569685 0.00420472,0 0.0076378,0.00127559 0.0102953,0.00379921 0.00265748,0.00253543 0.00397638,0.00579134 0.00397638,0.00976378 0,0.00752756 -0.00534646,0.014311 -0.0160354,0.0203465 -0.0107126,0.00603543 -0.0232874,0.00905906 -0.0377441,0.00905906 -0.0176457,0 -0.0323504,-0.00588583 -0.0441614,-0.017685 -0.011815,-0.0117874 -0.0177008,-0.0265866 -0.0177008,-0.0443819 0,-0.0178622 0.00572441,-0.0327677 0.0171969,-0.0447047 0.0114764,-0.0119331 0.0257717,-0.0179016 0.0428858,-0.0179016 0.0165354,0 0.0303701,0.00561417 0.0415079,0.0168189 0.0111457,0.0112165 0.0167087,0.0249291 0.0167087,0.041122 0,0.00529134 -0.00120866,0.00898031 -0.00363386,0.0110709 -0.00244488,0.00209843 -0.0071378,0.00314567 -0.0140669,0.00314567l-0.0638701 0zm-0.000433071 -0.0228937l0 0 0.0471457 0c-0.000433071,-0.00592913 -0.00287402,-0.010878 -0.00729528,-0.0148661 -0.00443701,-0.00397638 -0.0097126,-0.0059685 -0.0158465,-0.0059685 -0.00604724,0 -0.0112402,0.00188583 -0.0155945,0.00564173 -0.00435433,0.00377165 -0.00716142,0.00883071 -0.00840945,0.0151929z"/>
  <path class="fil0" d="M1.57468 3.27646c-0.00362205,0.00433858 -0.008,0.00764961 -0.0131299,0.00992913 -0.00512598,0.00227953 -0.0107126,0.00341732 -0.0167638,0.00341732 -0.0152717,0 -0.0281299,-0.00588583 -0.0385709,-0.017685 -0.0104331,-0.0117874 -0.0156535,-0.0265039 -0.0156535,-0.0441654 0,-0.0174291 0.00538189,-0.0321181 0.0161654,-0.0440512 0.0107717,-0.011937 0.0239016,-0.0179055 0.0393898,-0.0179055 0.00605118,0 0.0114213,0.00101575 0.0161142,0.00303937 0.00467717,0.00203543 0.00882677,0.0051811 0.0124488,0.00944094 0.00206299,-0.00368898 0.0045315,-0.00647244 0.00740551,-0.00835827 0.00287795,-0.00187008 0.00609055,-0.0028189 0.00962992,-0.0028189 0.00598425,0 0.0104173,0.00206299 0.0132913,0.00618504 0.00287795,0.00412205 0.00431496,0.0105236 0.00431496,0.0192047l0 0.0704213c0,0.00861417 -0.00146457,0.0150157 -0.00436614,0.0192047 -0.00292913,0.00420472 -0.00732677,0.00629528 -0.0132402,0.00629528 -0.00398819,0 -0.00733465,-0.000976378 -0.010063,-0.00292913 -0.00274016,-0.00195669 -0.00505906,-0.00501969 -0.00697244,-0.00922441zm-0.0471457 -0.048937l0 0c0,0.00861417 0.00212992,0.0155433 0.00640157,0.0207795 0.0042874,0.00524803 0.0098622,0.00786614 0.0167244,0.00786614 0.0067126,0 0.0122087,-0.00265748 0.0164803,-0.00797638 0.0042874,-0.00531496 0.00642913,-0.0122047 0.00642913,-0.0206693 0,-0.00824803 -0.00215748,-0.0149724 -0.00648425,-0.0201811 -0.00431496,-0.00520866 -0.00979134,-0.00781496 -0.0164252,-0.00781496 -0.00679528,0 -0.0123425,0.00259449 -0.0166575,0.00775984 -0.00432677,0.0051811 -0.0064685,0.0119213 -0.0064685,0.0202362z"/>
  <path class="fil0" d="M1.69867 3.27244c-0.00391732,0.00550787 -0.00857087,0.00960236 -0.0139409,0.012315 -0.00539764,0.00271654 -0.0115551,0.00407087 -0.0185,0.00407087 -0.0144606,0 -0.0266811,-0.0058189 -0.0366772,-0.0174685 -0.0100079,-0.0116378 -0.015,-0.0261102 -0.015,-0.0434055 0,-0.0174291 0.00538189,-0.0321181 0.0161654,-0.0440512 0.0107717,-0.011937 0.0239016,-0.0179055 0.0393898,-0.0179055 0.00604724,0 0.0114213,0.00101575 0.0161142,0.00303937 0.00467717,0.00203543 0.00882677,0.0051811 0.0124488,0.00944094 0.00191339,-0.00347244 0.0042874,-0.00620079 0.0071378,-0.00819291 0.00284646,-0.00198031 0.00573622,-0.00298425 0.00867717,-0.00298425 0.00613386,0 0.0106496,0.00208661 0.013563,0.00623622 0.00291732,0.00416535 0.00437008,0.0105551 0.00437008,0.0191535l0 0.0704213c0,0.0129528 -0.000653543,0.0230591 -0.00192913,0.0303268 -0.00129921,0.00727165 -0.00344094,0.0132953 -0.00648031,0.0180669 -0.00523622,0.00859843 -0.0124528,0.0151378 -0.0216339,0.0195866 -0.0091811,0.00444882 -0.0200866,0.00667323 -0.0327008,0.00667323 -0.015437,0 -0.0280079,-0.00242913 -0.037748,-0.00727165 -0.00973622,-0.00485433 -0.0146063,-0.0109567 -0.0146063,-0.0183386 0,-0.00442126 0.00146457,-0.00806693 0.00436614,-0.0109567 0.00291732,-0.00290157 0.00659055,-0.00434252 0.0110118,-0.00434252 0.00214567,0 0.00729921,0.00154724 0.015437,0.00466929 0.00816535,0.00310236 0.0157874,0.00466535 0.0228661,0.00466535 0.00884252,0 0.0157087,-0.00257874 0.0205906,-0.00770472 0.00485433,-0.00514173 0.00729528,-0.0123976 0.00729528,-0.021811 0,-0.000433071 -3.93701e-005,-0.00111417 -0.000106299,-0.00205906 -8.26772e-005,-0.000937008 -0.000110236,-0.00165748 -0.000110236,-0.00217323zm-0.0471457 -0.0444882l0 0c0,0.00876378 0.00216929,0.0158425 0.00652362,0.0212677 0.00435433,0.0054252 0.00997244,0.0081378 0.0168189,0.0081378 0.00686614,0 0.0125197,-0.00272441 0.0169409,-0.00819291 0.00442126,-0.00544882 0.00664567,-0.0125315 0.00664567,-0.0212126 0,-0.00846457 -0.00222441,-0.0153543 -0.00664567,-0.0206693 -0.00442126,-0.0053189 -0.0100748,-0.00797638 -0.0169409,-0.00797638 -0.00684646,0 -0.0124646,0.00265748 -0.0168189,0.00797638 -0.00435433,0.00531496 -0.00652362,0.0122047 -0.00652362,0.0206693z"/>
  <path class="fil0" d="M1.74065 3.14311c0,-0.0086811 0.00147638,-0.0151102 0.00443307,-0.019315 0.00294488,-0.00419291 0.00743307,-0.00629134 0.0134961,-0.00629134 0.00590157,0 0.010311,0.00211417 0.0132244,0.00634646 0.00290551,0.00423228 0.00437008,0.0106614 0.00437008,0.0192598l0 0.120008c0,0.0086811 -0.00143701,0.0151102 -0.00431496,0.0192598 -0.00287402,0.00416535 -0.00729921,0.00624016 -0.0132795,0.00624016 -0.00606299,0 -0.0105512,-0.00209055 -0.0134961,-0.00629528 -0.00295669,-0.00418898 -0.00443307,-0.0105906 -0.00443307,-0.0192047l0 -0.120008z"/>
  <path class="fil0" d="M1.81882 3.23772c0.000814961,0.00659055 0.00358268,0.0117165 0.00829921,0.0154055 0.00472047,0.00368898 0.0109606,0.00553543 0.0187047,0.00553543 0.0067126,0 0.0141732,-0.00189764 0.0224213,-0.00569685 0.00822047,-0.00379921 0.0132913,-0.00569685 0.0152165,-0.00569685 0.00420472,0 0.00762205,0.00127559 0.0102835,0.00379921 0.00265748,0.00253543 0.00398425,0.00579134 0.00398425,0.00976378 0,0.00752756 -0.00534252,0.014311 -0.0160315,0.0203465 -0.0107126,0.00603543 -0.0232992,0.00905906 -0.0377598,0.00905906 -0.0176299,0 -0.0323465,-0.00588583 -0.0441614,-0.017685 -0.0117992,-0.0117874 -0.0177008,-0.0265866 -0.0177008,-0.0443819 0,-0.0178622 0.00574016,-0.0327677 0.0172126,-0.0447047 0.0114764,-0.0119331 0.0257717,-0.0179016 0.0428858,-0.0179016 0.0165236,0 0.0303583,0.00561417 0.0415039,0.0168189 0.0111496,0.0112165 0.0167126,0.0249291 0.0167126,0.041122 0,0.00529134 -0.00122047,0.00898031 -0.00366142,0.0110709 -0.00241732,0.00209843 -0.00711024,0.00314567 -0.0140551,0.00314567l-0.0638543 0zm-0.000433071 -0.0228937l0 0 0.0471457 0c-0.000433071,-0.00592913 -0.00287795,-0.010878 -0.00729528,-0.0148661 -0.00444882,-0.00397638 -0.0097126,-0.0059685 -0.0158465,-0.0059685 -0.00604724,0 -0.0112559,0.00188583 -0.0155945,0.00564173 -0.00437008,0.00377165 -0.00716142,0.00883071 -0.00840945,0.0151929z"/>
  <path class="fil0" d="M1.93257 3.28709c-0.00951969,0 -0.0160591,-0.00158661 -0.0195984,-0.00477559 -0.00353937,-0.00317323 -0.00530315,-0.00914173 -0.00530315,-0.0179016l0 -0.110028c0,-0.00961811 0.00187008,-0.0162362 0.00564173,-0.0198583 0.00375591,-0.0036063 0.0103228,-0.0054252 0.0196929,-0.0054252l0.0302205 0c0.015937,0 0.0282913,0.00346063 0.0370827,0.0103622 0.00877559,0.00692126 0.0131693,0.0165472 0.0131693,0.0289173 0,0.00774803 -0.00162598,0.0141496 -0.00487008,0.0192087 -0.00325591,0.00507087 -0.00827165,0.00904724 -0.0150551,0.0119331 0.0105512,0.00253543 0.018622,0.00725984 0.0242402,0.0141614 0.00559843,0.00691732 0.00840551,0.0155433 0.00840551,0.025878 0,0.0149094 -0.0050315,0.0265591 -0.0151063,0.0349409 -0.0100669,0.00839764 -0.0241457,0.0125866 -0.0422244,0.0125866l-0.0362953 0zm0.0118386 -0.0964646l0 0 0.0153819 0c0.0054685,0 0.00985039,-0.00140945 0.0131693,-0.00423228 0.00332677,-0.0028189 0.00498031,-0.00650787 0.00498031,-0.0110669 0,-0.00477165 -0.0016811,-0.00857087 -0.0050315,-0.0113937 -0.00336614,-0.0028189 -0.00788189,-0.00423228 -0.0135669,-0.00423228l-0.0149331 0 0 0.0309252zm0 0.0655394l0 0 0.0183661 0c0.00812598,0 0.0142953,-0.00151969 0.0185433,-0.00455906 0.00424409,-0.00303543 0.00635827,-0.00744488 0.00635827,-0.0132362 0,-0.00599213 -0.0020748,-0.0104409 -0.00625197,-0.0133465 -0.00416142,-0.00288583 -0.0106063,-0.00433858 -0.019311,-0.00433858l-0.0177047 0 0 0.0354803z"/>
  <path class="fil0" d="M2.03077 3.22796c0,-0.0182283 0.00569685,-0.0332165 0.0170906,-0.0449764 0.0114094,-0.0117441 0.0258819,-0.0176299 0.0434449,-0.0176299 0.0176339,0 0.0320906,0.00585827 0.0433898,0.0175787 0.0112835,0.0117165 0.0169252,0.0267323 0.0169252,0.0450276 0,0.018311 -0.00564173,0.0333386 -0.0169252,0.0450866 -0.0112992,0.0117598 -0.0257559,0.0176299 -0.0433898,0.0176299 -0.017563,0 -0.0320354,-0.00588583 -0.0434449,-0.017685 -0.0113937,-0.0117874 -0.0170906,-0.0267992 -0.0170906,-0.0450315zm0.0369646 -0.000433071l0 0c0,0.00898031 0.00216929,0.0161969 0.00652362,0.0216457 0.00435039,0.0054685 0.0100354,0.00819291 0.0170472,0.00819291 0.00701181,0 0.0126969,-0.00274016 0.0170512,-0.00824409 0.00435039,-0.00549606 0.00652362,-0.0126969 0.00652362,-0.0215945 0,-0.00859843 -0.00222835,-0.0156378 -0.00670079,-0.0211063 -0.00446457,-0.00545276 -0.0100945,-0.00818898 -0.016874,-0.00818898 -0.00692913,0 -0.0126024,0.0027126 -0.0169961,0.0081378 -0.00437795,0.0054252 -0.0065748,0.0124764 -0.0065748,0.0211575z"/>
  <path class="fil0" d="M2.15687 3.26311l0 -0.0704213c0,-0.00859843 0.00145276,-0.0149882 0.00437008,-0.0191535 0.00291339,-0.00414961 0.00738976,-0.00623622 0.0134528,-0.00623622 0.00361024,0 0.00682283,0.00092126 0.00961811,0.00276772 0.00280709,0.00184252 0.00527559,0.00464961 0.00741732,0.00840945 0.00384252,-0.00412598 0.00825984,-0.00712205 0.0132795,-0.00900787 0.00501969,-0.00187008 0.0111102,-0.00282283 0.0182717,-0.00282283 0.0140906,0 0.0248622,0.00394882 0.0323071,0.0118307 0.00746063,0.0078937 0.011189,0.0193543 0.011189,0.0343976l0 0.0502362c0,0.00861417 -0.00147638,0.0150157 -0.00443307,0.0192047 -0.00294488,0.00420472 -0.00744882,0.00629528 -0.0134961,0.00629528 -0.00605118,0 -0.0105551,-0.00209055 -0.0135118,-0.00629528 -0.00294094,-0.00418898 -0.00442126,-0.0105906 -0.00442126,-0.0192047l0 -0.0396063c0,-0.00976378 -0.00148819,-0.0167205 -0.00448819,-0.0208858 -0.00298425,-0.00414961 -0.00790945,-0.00624016 -0.0147717,-0.00624016 -0.00649606,0 -0.0112835,0.00215748 -0.0143898,0.00645669 -0.00309055,0.00431496 -0.00465354,0.0110551 -0.00465354,0.0202362l0 0.0400394c0,0.00861417 -0.00146457,0.0150157 -0.00442126,0.0192047 -0.00295669,0.00420472 -0.00744488,0.00629528 -0.0134961,0.00629528 -0.00606299,0 -0.0105394,-0.00209055 -0.0134528,-0.00629528 -0.00291732,-0.00418898 -0.00437008,-0.0105906 -0.00437008,-0.0192047z"/>
  <path class="fil0" d="M2.308 3.23772c0.000799213,0.00659055 0.00356693,0.0117165 0.00829921,0.0154055 0.00472047,0.00368898 0.0109449,0.00553543 0.0187047,0.00553543 0.0067126,0 0.0141732,-0.00189764 0.0224055,-0.00569685 0.00823622,-0.00379921 0.0133071,-0.00569685 0.0152205,-0.00569685 0.00420472,0 0.00763386,0.00127559 0.0102913,0.00379921 0.00266142,0.00253543 0.00398819,0.00579134 0.00398819,0.00976378 0,0.00752756 -0.00535433,0.014311 -0.0160433,0.0203465 -0.0107047,0.00603543 -0.0232874,0.00905906 -0.037748,0.00905906 -0.0176339,0 -0.0323622,-0.00588583 -0.0441614,-0.017685 -0.0117992,-0.0117874 -0.0177008,-0.0265866 -0.0177008,-0.0443819 0,-0.0178622 0.00572441,-0.0327677 0.0172008,-0.0447047 0.0114724,-0.0119331 0.0257677,-0.0179016 0.0428858,-0.0179016 0.0165315,0 0.0303661,0.00561417 0.0415039,0.0168189 0.0111496,0.0112165 0.0167205,0.0249291 0.0167205,0.041122 0,0.00529134 -0.00122047,0.00898031 -0.00365748,0.0110709 -0.00242913,0.00209843 -0.00712205,0.00314567 -0.0140551,0.00314567l-0.0638543 0zm-0.000448819 -0.0228937l0 0 0.0471457 0c-0.000433071,-0.00592913 -0.00287402,-0.010878 -0.00729528,-0.0148661 -0.00443701,-0.00397638 -0.0097126,-0.0059685 -0.0158307,-0.0059685 -0.00604724,0 -0.0112559,0.00188583 -0.0156102,0.00564173 -0.00435433,0.00377165 -0.00716142,0.00883071 -0.00840945,0.0151929z"/>
  <path class="fil0" d="M3.66191 3.28709c-0.00951969,0 -0.0160472,-0.00158661 -0.0195866,-0.00477559 -0.00355118,-0.00317323 -0.00531496,-0.00914173 -0.00531496,-0.0179016l0 -0.110028c0,-0.00961811 0.00188583,-0.0162362 0.00564173,-0.0198583 0.00377165,-0.0036063 0.0103346,-0.0054252 0.0197087,-0.0054252l0.0302047 0c0.0159528,0 0.0282913,0.00346063 0.0370827,0.0103622 0.0087874,0.00692126 0.0131693,0.0165472 0.0131693,0.0289173 0,0.00774803 -0.00161417,0.0141496 -0.00487008,0.0192087 -0.00325591,0.00507087 -0.00827165,0.00904724 -0.0150551,0.0119331 0.0105551,0.00253543 0.0186378,0.00725984 0.024252,0.0141614 0.00559055,0.00691732 0.00840945,0.0155433 0.00840945,0.025878 0,0.0149094 -0.00504724,0.0265591 -0.0151102,0.0349409 -0.0100787,0.00839764 -0.0241417,0.0125866 -0.0422362,0.0125866l-0.0362953 0zm0.0118543 -0.0964646l0 0 0.0153819 0c0.00545276,0 0.00984646,-0.00140945 0.0131575,-0.00423228 0.00333465,-0.0028189 0.00498819,-0.00650787 0.00498819,-0.0110669 0,-0.00477165 -0.0016811,-0.00857087 -0.00504331,-0.0113937 -0.00335039,-0.0028189 -0.00786614,-0.00423228 -0.0135512,-0.00423228l-0.0149331 0 0 0.0309252zm0 0.0655394l0 0 0.0183661 0c0.00811024,0 0.0142953,-0.00151969 0.0185276,-0.00455906 0.00425984,-0.00303543 0.00637402,-0.00744488 0.00637402,-0.0132362 0,-0.00599213 -0.00208661,-0.0104409 -0.00625197,-0.0133465 -0.00416535,-0.00288583 -0.010622,-0.00433858 -0.019315,-0.00433858l-0.0177008 0 0 0.0354803z"/>
  <path class="fil0" d="M3.76246 3.26311l0 -0.0704213c0,-0.00859843 0.00144882,-0.0149882 0.00436614,-0.0191535 0.00291732,-0.00414961 0.00738976,-0.00623622 0.0134409,-0.00623622 0.00362205,0 0.00683465,0.00092126 0.00962992,0.00276772 0.00280709,0.00184252 0.00529134,0.00464961 0.00741732,0.00840945 0.00369291,-0.00390551 0.00761024,-0.00685039 0.0117362,-0.00884646 0.00412205,-0.00198031 0.00829921,-0.00298425 0.0125039,-0.00298425 0.00493701,0 0.00920866,0.00172441 0.0127756,0.00515748 0.00358268,0.00344488 0.00537008,0.00751181 0.00537008,0.0122047 0,0.00702756 -0.00656299,0.0128858 -0.0196929,0.0175787 -0.00472047,0.00166929 -0.00827165,0.00303937 -0.0106339,0.00412205 -0.0045,0.00210236 -0.00748819,0.00443701 -0.00894882,0.007 -0.00148031,0.00257874 -0.00222835,0.00721654 -0.00222835,0.0139449l0 0.0364567c0,0.00861417 -0.00146457,0.0150157 -0.00442126,0.0192047 -0.00295669,0.00420472 -0.00746063,0.00629528 -0.0135079,0.00629528 -0.00605118,0 -0.0105236,-0.00209055 -0.0134409,-0.00629528 -0.00291732,-0.00418898 -0.00436614,-0.0105906 -0.00436614,-0.0192047z"/>
  <path class="fil0" d="M3.86553 3.23772c0.000814961,0.00659055 0.00357874,0.0117165 0.00829921,0.0154055 0.00472047,0.00368898 0.0109606,0.00553543 0.0187047,0.00553543 0.0067126,0 0.014189,-0.00189764 0.0224213,-0.00569685 0.00822047,-0.00379921 0.0132913,-0.00569685 0.0152165,-0.00569685 0.00420472,0 0.00762205,0.00127559 0.0102835,0.00379921 0.00265748,0.00253543 0.00398425,0.00579134 0.00398425,0.00976378 0,0.00752756 -0.00534252,0.014311 -0.0160433,0.0203465 -0.0107008,0.00603543 -0.0232874,0.00905906 -0.037748,0.00905906 -0.0176339,0 -0.0323465,-0.00588583 -0.0441614,-0.017685 -0.0117992,-0.0117874 -0.0177008,-0.0265866 -0.0177008,-0.0443819 0,-0.0178622 0.00573622,-0.0327677 0.0172126,-0.0447047 0.0114764,-0.0119331 0.0257717,-0.0179016 0.0428858,-0.0179016 0.0165236,0 0.0303543,0.00561417 0.0415039,0.0168189 0.0111496,0.0112165 0.0167126,0.0249291 0.0167126,0.041122 0,0.00529134 -0.00122047,0.00898031 -0.00364961,0.0110709 -0.00242913,0.00209843 -0.00712205,0.00314567 -0.0140669,0.00314567l-0.0638543 0zm-0.000433071 -0.0228937l0 0 0.0471457 0c-0.000448819,-0.00592913 -0.00287795,-0.010878 -0.00731102,-0.0148661 -0.00443701,-0.00397638 -0.00969685,-0.0059685 -0.0158307,-0.0059685 -0.00604724,0 -0.0112559,0.00188583 -0.0155945,0.00564173 -0.00437008,0.00377165 -0.00716142,0.00883071 -0.00840945,0.0151929z"/>
  <path class="fil0" d="M4.03826 3.27646c-0.00362205,0.00433858 -0.00798819,0.00764961 -0.0131142,0.00992913 -0.00512992,0.00227953 -0.0107165,0.00341732 -0.0167638,0.00341732 -0.0152756,0 -0.0281339,-0.00588583 -0.0385748,-0.017685 -0.0104449,-0.0117874 -0.0156535,-0.0265039 -0.0156535,-0.0441654 0,-0.0174291 0.00537008,-0.0321181 0.0161535,-0.0440512 0.0107717,-0.011937 0.0239134,-0.0179055 0.0394016,-0.0179055 0.00605118,0 0.0114213,0.00101575 0.0161024,0.00303937 0.00467717,0.00203543 0.00882677,0.0051811 0.0124488,0.00944094 0.0020748,-0.00368898 0.00454331,-0.00647244 0.00742126,-0.00835827 0.00287402,-0.00187008 0.0060748,-0.0028189 0.00962992,-0.0028189 0.00596457,0 0.0104016,0.00206299 0.0132756,0.00618504 0.00287795,0.00412205 0.00431496,0.0105236 0.00431496,0.0192047l0 0.0704213c0,0.00861417 -0.00145276,0.0150157 -0.00436614,0.0192047 -0.00291732,0.00420472 -0.00732677,0.00629528 -0.0132244,0.00629528 -0.00398819,0 -0.00735433,-0.000976378 -0.0100787,-0.00292913 -0.00272835,-0.00195669 -0.00505906,-0.00501969 -0.00697244,-0.00922441zm-0.0471457 -0.048937l0 0c0,0.00861417 0.00212992,0.0155433 0.00641732,0.0207795 0.00428346,0.00524803 0.00984646,0.00786614 0.0167087,0.00786614 0.00672835,0 0.0122087,-0.00265748 0.0164921,-0.00797638 0.0042874,-0.00531496 0.00642913,-0.0122047 0.00642913,-0.0206693 0,-0.00824803 -0.00216929,-0.0149724 -0.00648425,-0.0201811 -0.00431102,-0.00520866 -0.00979134,-0.00781496 -0.016437,-0.00781496 -0.00678346,0 -0.0123425,0.00259449 -0.0166575,0.00775984 -0.00431102,0.0051811 -0.0064685,0.0119213 -0.0064685,0.0202362z"/>
  <path class="fil0" d="M4.16688 3.27733c-0.00368898,0.00390551 -0.00798819,0.00687402 -0.0128858,0.0088937 -0.00490945,0.00202362 -0.0102795,0.00303937 -0.0161142,0.00303937 -0.0149724,0 -0.0279094,-0.00604724 -0.0387874,-0.0181732 -0.010878,-0.0121142 -0.0163307,-0.0268543 -0.0163307,-0.0442165 0,-0.0173622 0.00537008,-0.0319843 0.0161102,-0.0438937 0.0107441,-0.0118937 0.0237362,-0.0178465 0.0390079,-0.0178465 0.00553543,0 0.0105945,0.000811024 0.0151654,0.00244094 0.00458268,0.00162598 0.00889764,0.00414961 0.0129528,0.00753937l0 -0.0320079c0,-0.0086811 0.00145276,-0.0151102 0.00436614,-0.019315 0.00291732,-0.00419291 0.00743307,-0.00629134 0.0135669,-0.00629134 0.00589764,0 0.0103071,0.00211417 0.0132205,0.00634646 0.00290551,0.00423228 0.00437008,0.0106614 0.00437008,0.0192598l0 0.120008c0,0.0086811 -0.00143701,0.0151102 -0.00431496,0.0192598 -0.00287402,0.00416535 -0.00729528,0.00624016 -0.0132756,0.00624016 -0.00354331,0 -0.00675591,-0.000964567 -0.00963386,-0.00287402 -0.00288583,-0.00191339 -0.00535433,-0.00472441 -0.00741732,-0.00840945zm-0.0473622 -0.0500236l0 0c0,0.0086811 0.00220866,0.0157323 0.00662992,0.0211575 0.00443701,0.0054252 0.0100787,0.0081378 0.0169409,0.0081378 0.00686614,0 0.0124646,-0.00268504 0.0168189,-0.00808268 0.00435433,-0.00538583 0.00653937,-0.0124488 0.00653937,-0.0212126 0,-0.00889764 -0.00217323,-0.0160709 -0.00648425,-0.0215394 -0.00431496,-0.00545276 -0.00994094,-0.00819291 -0.016874,-0.00819291 -0.00694488,0 -0.0125984,0.00275591 -0.0169921,0.00824803 -0.00438189,0.00550787 -0.00657874,0.0126693 -0.00657874,0.0214843z"/>
  <path class="fil0" d="M4.2496 3.17511c0.00390551,-0.00332283 0.00821654,-0.0058189 0.0128819,-0.00748425 0.00469291,-0.00165748 0.00976772,-0.00249606 0.0152205,-0.00249606 0.0154331,0 0.0284291,0.00599213 0.0390079,0.0179567 0.0106063,0.0119764 0.0158937,0.026937 0.0158937,0.0448661 0,0.0169291 -0.00542126,0.0313858 -0.0162717,0.0433504 -0.0108543,0.0119764 -0.0237126,0.0179567 -0.0386299,0.0179567 -0.00588583,0 -0.011311,-0.00101575 -0.016248,-0.00303937 -0.00496457,-0.00201969 -0.00919685,-0.00498819 -0.012752,-0.0088937 -0.00219685,0.00376772 -0.00472047,0.00659055 -0.00756693,0.00846063 -0.00285039,0.00187402 -0.00599606,0.00282283 -0.0094685,0.00282283 -0.00604724,0 -0.0105394,-0.00209055 -0.0134409,-0.00629528 -0.00292913,-0.00418898 -0.00436614,-0.0105906 -0.00436614,-0.0192047l0 -0.120008c0,-0.0086811 0.00143701,-0.0151102 0.00436614,-0.019315 0.00290157,-0.00419291 0.0073937,-0.00629134 0.0134409,-0.00629134 0.00605118,0 0.0105512,0.00209843 0.0135079,0.00629134 0.00296063,0.00420472 0.0044252,0.0106339 0.0044252,0.019315l0 0.0320079zm-0.000677165 0.0521929l0 0c0,0.00883071 0.00219685,0.0159213 0.00659055,0.0212677 0.0043937,0.00535827 0.010063,0.00802756 0.0170079,0.00802756 0.00683465,0 0.0125039,-0.0027126 0.0169252,-0.0081378 0.0044252,-0.0054252 0.00664567,-0.0124764 0.00664567,-0.0211575 0,-0.00881496 -0.00219685,-0.0159764 -0.00659055,-0.0214843 -0.0043937,-0.00549213 -0.010063,-0.00824803 -0.0169803,-0.00824803 -0.00694488,0 -0.0126142,0.00274016 -0.0170079,0.00819291 -0.0043937,0.0054685 -0.00659055,0.0126417 -0.00659055,0.0215394z"/>
  <path class="fil0" d="M4.33616 3.22796c0,-0.0182283 0.00569685,-0.0332165 0.0170906,-0.0449764 0.0114094,-0.0117441 0.025878,-0.0176299 0.0434449,-0.0176299 0.0176299,0 0.0320906,0.00585827 0.0433858,0.0175787 0.0112874,0.0117165 0.0169291,0.0267323 0.0169291,0.0450276 0,0.018311 -0.00564173,0.0333386 -0.0169291,0.0450866 -0.0112953,0.0117598 -0.0257559,0.0176299 -0.0433858,0.0176299 -0.0175669,0 -0.0320354,-0.00588583 -0.0434449,-0.017685 -0.0113937,-0.0117874 -0.0170906,-0.0267992 -0.0170906,-0.0450315zm0.0369606 -0.000433071l0 0c0,0.00898031 0.00216929,0.0161969 0.00652362,0.0216457 0.00435433,0.0054685 0.0100394,0.00819291 0.0170512,0.00819291 0.00701181,0 0.0126929,-0.00274016 0.0170472,-0.00824409 0.00435433,-0.00549606 0.00652362,-0.0126969 0.00652362,-0.0215945 0,-0.00859843 -0.00222441,-0.0156378 -0.00670079,-0.0211063 -0.00446063,-0.00545276 -0.0100906,-0.00818898 -0.0168701,-0.00818898 -0.00693307,0 -0.0126024,0.0027126 -0.0169961,0.0081378 -0.00438189,0.0054252 -0.00657874,0.0124764 -0.00657874,0.0211575z"/>
  <path class="fil0" d="M4.54469 3.27646c-0.0036063,0.00433858 -0.00798819,0.00764961 -0.0131142,0.00992913 -0.00512598,0.00227953 -0.0107165,0.00341732 -0.0167638,0.00341732 -0.0152756,0 -0.0281339,-0.00588583 -0.0385748,-0.017685 -0.0104449,-0.0117874 -0.0156535,-0.0265039 -0.0156535,-0.0441654 0,-0.0174291 0.00538583,-0.0321181 0.0161535,-0.0440512 0.0107717,-0.011937 0.0238976,-0.0179055 0.0394016,-0.0179055 0.00605118,0 0.0114213,0.00101575 0.0161024,0.00303937 0.00469291,0.00203543 0.00884252,0.0051811 0.0124488,0.00944094 0.00206299,-0.00368898 0.00454331,-0.00647244 0.00742126,-0.00835827 0.00287402,-0.00187008 0.00608661,-0.0028189 0.00962992,-0.0028189 0.00596457,0 0.0104016,0.00206299 0.0132756,0.00618504 0.00287795,0.00412205 0.00431496,0.0105236 0.00431496,0.0192047l0 0.0704213c0,0.00861417 -0.00145276,0.0150157 -0.00436614,0.0192047 -0.00291732,0.00420472 -0.00732677,0.00629528 -0.0132244,0.00629528 -0.00398819,0 -0.00735433,-0.000976378 -0.0100787,-0.00292913 -0.00272835,-0.00195669 -0.00504724,-0.00501969 -0.00697244,-0.00922441zm-0.0471457 -0.048937l0 0c0,0.00861417 0.00214173,0.0155433 0.00641732,0.0207795 0.00428346,0.00524803 0.00984646,0.00786614 0.0167087,0.00786614 0.0067126,0 0.0122205,-0.00265748 0.0164921,-0.00797638 0.0042874,-0.00531496 0.00642913,-0.0122047 0.00642913,-0.0206693 0,-0.00824803 -0.00216929,-0.0149724 -0.00648425,-0.0201811 -0.00431102,-0.00520866 -0.00979134,-0.00781496 -0.016437,-0.00781496 -0.00678346,0 -0.0123307,0.00259449 -0.0166575,0.00775984 -0.00431102,0.0051811 -0.0064685,0.0119213 -0.0064685,0.0202362z"/>
  <path class="fil0" d="M4.59165 3.26311l0 -0.0704213c0,-0.00859843 0.00145276,-0.0149882 0.00437008,-0.0191535 0.00291339,-0.00414961 0.00738976,-0.00623622 0.0134528,-0.00623622 0.00361024,0 0.00682283,0.00092126 0.00961811,0.00276772 0.00280709,0.00184252 0.00527559,0.00464961 0.00741732,0.00840945 0.00368898,-0.00390551 0.00759843,-0.00685039 0.0117323,-0.00884646 0.0041378,-0.00198031 0.00830315,-0.00298425 0.0125079,-0.00298425 0.00494882,0 0.00920866,0.00172441 0.0127913,0.00515748 0.00356299,0.00344488 0.00535433,0.00751181 0.00535433,0.0122047 0,0.00702756 -0.00656299,0.0128858 -0.0196929,0.0175787 -0.00472047,0.00166929 -0.00825984,0.00303937 -0.010622,0.00412205 -0.0045,0.00210236 -0.0075,0.00443701 -0.00896457,0.007 -0.00147638,0.00257874 -0.00222047,0.00721654 -0.00222047,0.0139449l0 0.0364567c0,0.00861417 -0.0014685,0.0150157 -0.0044252,0.0192047 -0.00295669,0.00420472 -0.00744488,0.00629528 -0.0134961,0.00629528 -0.00606299,0 -0.0105394,-0.00209055 -0.0134528,-0.00629528 -0.00291732,-0.00418898 -0.00437008,-0.0105906 -0.00437008,-0.0192047z"/>
  <path class="fil0" d="M4.74717 3.27733c-0.00368898,0.00390551 -0.00798819,0.00687402 -0.0128976,0.0088937 -0.00489764,0.00202362 -0.0102677,0.00303937 -0.0161024,0.00303937 -0.0149724,0 -0.0279134,-0.00604724 -0.0387913,-0.0181732 -0.010878,-0.0121142 -0.016315,-0.0268543 -0.016315,-0.0442165 0,-0.0173622 0.00535827,-0.0319843 0.0160984,-0.0438937 0.0107323,-0.0118937 0.0237362,-0.0178465 0.0390079,-0.0178465 0.00553543,0 0.0105945,0.000811024 0.0151654,0.00244094 0.00457087,0.00162598 0.00889764,0.00414961 0.0129528,0.00753937l0 -0.0320079c0,-0.0086811 0.00145276,-0.0151102 0.00437008,-0.019315 0.00291339,-0.00419291 0.00742913,-0.00629134 0.0135591,-0.00629134 0.00590157,0 0.010311,0.00211417 0.0132283,0.00634646 0.00291339,0.00423228 0.00436614,0.0106614 0.00436614,0.0192598l0 0.120008c0,0.0086811 -0.00143701,0.0151102 -0.00431496,0.0192598 -0.00287402,0.00416535 -0.00731102,0.00624016 -0.0132795,0.00624016 -0.00353937,0 -0.00675197,-0.000964567 -0.00962598,-0.00287402 -0.00287795,-0.00191339 -0.00535827,-0.00472441 -0.00742126,-0.00840945zm-0.0473622 -0.0500236l0 0c0,0.0086811 0.00220866,0.0157323 0.00663386,0.0211575 0.00443307,0.0054252 0.0100748,0.0081378 0.016937,0.0081378 0.0068622,0 0.0124646,-0.00268504 0.0168189,-0.00808268 0.00435433,-0.00538583 0.00652362,-0.0124488 0.00652362,-0.0212126 0,-0.00889764 -0.00215354,-0.0160709 -0.0064685,-0.0215394 -0.00431102,-0.00545276 -0.00994094,-0.00819291 -0.016874,-0.00819291 -0.00694488,0 -0.0125984,0.00275591 -0.0169921,0.00824803 -0.00439764,0.00550787 -0.00657874,0.0126693 -0.00657874,0.0214843z"/>
  <path class="fil0" d="M0.716118 2.3876l0.0277756 -0.754035c0,-0.111732 0.0909094,-0.202642 0.202654,-0.202642l0.0261339 0c0.00766929,0 0.0138898,-0.00622047 0.0138898,-0.0138898l0 -0.0492087c0,-0.0140512 0.0114331,-0.0254843 0.0254843,-0.0254843l0.265756 0c0.0140512,0 0.0254843,0.0114331 0.0254843,0.0254843l0 0.0492087c0,0.00766929 0.00622047,0.0138898 0.0138898,0.0138898l0.272169 0c0.00766929,0 0.0138898,-0.00622047 0.0138898,-0.0138898l0 -0.0492165c0,-0.0140512 0.0114331,-0.0254764 0.0254843,-0.0254764l0.53148 0c0.0140512,0 0.0254843,0.0114252 0.0254843,0.0254764l0 0.0492165c0,0.00766929 0.00622047,0.0138898 0.0138898,0.0138898l0.479248 0c0.111744,0 0.20265,0.0909094 0.20265,0.202642l0.0277795 0.754035 0 -0.754035c0,-0.127055 -0.103366,-0.230421 -0.230429,-0.230421l-0.465358 0 0 -0.0353268c0,-0.0293622 -0.0238937,-0.0532559 -0.0532638,-0.0532559l-0.53148 0c-0.0293701,0 -0.0532638,0.0238937 -0.0532638,0.0532559l0 0.0353268 -0.24439 0 0 -0.0353189c0,-0.0293701 -0.0238937,-0.0532638 -0.0532638,-0.0532638l-0.265756 0c-0.0293701,0 -0.0532638,0.0238937 -0.0532638,0.0532638l0 0.0353189 -0.0122441 0c-0.127063,0 -0.230429,0.103366 -0.230429,0.230421l0 0.754035z"/>
  <path class="fil0" d="M2.90926 4.01336l-0.0277795 0.328858c0,0.252846 -0.205701,0.458551 -0.458547,0.458551l-1.22048 0c-0.252854,0 -0.458563,-0.205705 -0.458563,-0.458551l-0.0277756 -0.328858 0 0.328858c0,0.268161 0.218173,0.486327 0.486339,0.486327l1.22048 0c0.268161,0 0.486327,-0.218165 0.486327,-0.486327l0 -0.328858z"/>
  <path class="fil0" d="M3.13165 2.3876l0.0277795 -0.761921c0,-0.0140512 0.0114331,-0.0254803 0.0254843,-0.0254803l0.308012 0 0.00694488 0.787402 0.00694094 -0.787402 1.40343 0 0.00694488 0.787402 0.00694488 -0.787402 0.308024 0c0.0140512,0 0.0254882,0.0114291 0.0254882,0.0254803l0.0277756 0.761921 0 -0.761921c0,-0.0293661 -0.0238976,-0.0532559 -0.0532638,-0.0532559l-2.04724 0c-0.0293661,0 -0.0532638,0.0238898 -0.0532638,0.0532559l0 0.761921z"/>
  <path class="fil0" d="M5.28542 4.01336l-0.0277756 0.761921c0,0.0140551 -0.011437,0.0254882 -0.0254882,0.0254882l-0.308024 0 -0.00694488 -0.787409 -0.00694488 0.787409 -1.40343 0 -0.00694094 -0.787409 -0.00694488 0.787409 -0.308012 0c-0.0140512,0 -0.0254843,-0.0114331 -0.0254843,-0.0254882l-0.0277795 -0.761921 0 0.761921c0,0.0293661 0.0238976,0.0532638 0.0532638,0.0532638l2.04724 0c0.0293661,0 0.0532638,-0.0238976 0.0532638,-0.0532638l0 -0.761921z"/>
  <g id="_41517656">
   <path id="_42186424" class="fil1 str0" d="M5.25086 1.0438c0.138075,0 0.25,0.111929 0.25,0.25"/>
   <line id="_43728840" class="fil1 str0" x1="5.50086" y1="1.2938" x2="5.50086" y2= "4.7938" />
   <path id="_43381704" class="fil1 str0" d="M5.50086 4.7938c0,0.138075 -0.111925,0.25 -0.25,0.25"/>
   <line id="_44377184" class="fil1 str0" x1="5.25086" y1="5.0438" x2="0.750866" y2= "5.0438" />
   <path id="_61493504" class="fil1 str0" d="M0.750866 5.0438c-0.138067,0 -0.25,-0.111925 -0.25,-0.25"/>
   <line id="_61944472" class="fil1 str0" x1="0.500866" y1="4.7938" x2="0.500866" y2= "1.2938" />
   <path id="_61491336" class="fil1 str0" d="M0.500866 1.2938c0,-0.138071 0.111933,-0.25 0.25,-0.25"/>
   <line id="_61489328" class="fil1 str0" x1="0.750866" y1="1.0438" x2="1.99084" y2= "1.0438" />
   <path id="_43043384" class="fil1 str0" d="M1.99084 1.0438c0.138075,0 0.25,0.111929 0.25,0.25"/>
   <line id="_61496168" class="fil1 str0" x1="2.24084" y1="1.2938" x2="2.24084" y2= "1.36377" />
   <path id="_61493272" class="fil1 str0" d="M2.24084 1.36377c0,0.021748 0.0176339,0.039374 0.039374,0.039374"/>
   <line id="_41517024" class="fil1 str0" x1="2.28022" y1="1.40315" x2="2.67399" y2= "1.40315" />
   <path id="_41516952" class="fil1 str0" d="M2.67399 1.40315c0.0217441,0 0.039374,-0.017626 0.039374,-0.039374"/>
   <line id="_41516880" class="fil1 str0" x1="2.71336" y1="1.36377" x2="2.71328" y2= "1.2938" />
   <path id="_41516808" class="fil1 str0" d="M2.71328 1.2938c0,-0.138071 0.111921,-0.25 0.25,-0.25"/>
   <line id="_41517288" class="fil1 str0" x1="2.96328" y1="1.0438" x2="5.25086" y2= "1.0438" />
  </g>
  <g id="_41524408">
   <path id="_41517336" class="fil1 str0" d="M0.813366 1.2938c0,0.0345197 -0.0279803,0.0625 -0.0625,0.0625 -0.0345197,0 -0.0625,-0.0279803 -0.0625,-0.0625 0,-0.0345197 0.0279803,-0.0625 0.0625,-0.0625 0.0345197,0 0.0625,0.0279803 0.0625,0.0625"/>
   <path id="_41517408" class="fil1 str0" d="M3.02578 1.2938c0,0.0345197 -0.0279803,0.0625 -0.0624961,0.0625 -0.0345197,0 -0.0625,-0.0279803 -0.0625,-0.0625 0,-0.0345197 0.0279803,-0.0625 0.0625,-0.0625 0.0345157,0 0.0624961,0.0279803 0.0624961,0.0625"/>
   <path id="_41517480" class="fil1 str0" d="M5.31336 1.2938c0,0.0345197 -0.0279803,0.0625 -0.0625,0.0625 -0.0345197,0 -0.0625,-0.0279803 -0.0625,-0.0625 0,-0.0345197 0.0279803,-0.0625 0.0625,-0.0625 0.0345197,0 0.0625,0.0279803 0.0625,0.0625"/>
   <path id="_41517744" class="fil1 str0" d="M0.813366 4.7938c0,0.0345315 -0.0279685,0.0625 -0.0625,0.0625 -0.0345039,0 -0.0625,-0.0279685 -0.0625,-0.0625 0,-0.0345039 0.0279961,-0.0625 0.0625,-0.0625 0.0345315,0 0.0625,0.0279961 0.0625,0.0625"/>
   <path id="_41515232" class="fil1 str0" d="M3.02578 4.7938c0,0.0345315 -0.0279803,0.0625 -0.0624961,0.0625 -0.0345197,0 -0.0625,-0.0279685 -0.0625,-0.0625 0,-0.0345039 0.0279803,-0.0625 0.0625,-0.0625 0.0345157,0 0.0624961,0.0279961 0.0624961,0.0625"/>
   <path id="_41515160" class="fil1 str1" d="M2.7615 2.02904c-0.0326063,0 -0.0590551,-0.0264409 -0.0590551,-0.0590512 0,-0.0326142 0.0264488,-0.0590551 0.0590551,-0.0590551 0.032622,0 0.0590551,0.0264409 0.0590551,0.0590551 0,0.0326102 -0.0264331,0.0590512 -0.0590551,0.0590512"/>
   <path id="_41515088" class="fil1 str1" d="M0.863878 2.02904c-0.032622,0 -0.0590551,-0.0264409 -0.0590551,-0.0590512 0,-0.0326142 0.0264331,-0.0590551 0.0590551,-0.0590551 0.0326063,0 0.0590551,0.0264409 0.0590551,0.0590551 0,0.0326102 -0.0264488,0.0590512 -0.0590551,0.0590512"/>
   <path id="_41431840" class="fil1 str1" d="M2.63552 4.62943c-0.0326181,0 -0.0590551,-0.0264488 -0.0590551,-0.0590551 0,-0.0326339 0.026437,-0.0590551 0.0590551,-0.0590551 0.0326063,0 0.0590551,0.0264213 0.0590551,0.0590551 0,0.0326063 -0.0264488,0.0590551 -0.0590551,0.0590551"/>
   <path id="_61505896" class="fil1 str1" d="M0.989854 4.62943c-0.032622,0 -0.0590551,-0.0264488 -0.0590551,-0.0590551 0,-0.0326339 0.0264331,-0.0590551 0.0590551,-0.0590551 0.0326063,0 0.0590551,0.0264213 0.0590551,0.0590551 0,0.0326063 -0.0264488,0.0590551 -0.0590551,0.0590551"/>
  </g>
 </g>
</svg>
